<mxfile host="app.diagrams.net" agent="Mozilla/5.0 (Windows NT 10.0; Win64; x64) AppleWebKit/537.36 (KHTML, like Gecko) Chrome/132.0.0.0 Safari/537.36 Edg/132.0.0.0" version="26.0.9">
  <diagram name="Page-1" id="WJ9jeUcj0Wiudgir5O6E">
    <mxGraphModel dx="1593" dy="958" grid="1" gridSize="10" guides="1" tooltips="1" connect="1" arrows="1" fold="1" page="1" pageScale="1" pageWidth="1654" pageHeight="1169" math="0" shadow="0">
      <root>
        <mxCell id="0" />
        <mxCell id="1" parent="0" />
        <mxCell id="JuqPdNve4gQtESJ3oh5d-9" value="&lt;font style=&quot;font-size: 14px;&quot;&gt;&lt;b style=&quot;&quot;&gt;Usuario&lt;/b&gt;&lt;/font&gt;" style="shape=umlActor;verticalLabelPosition=bottom;verticalAlign=top;html=1;outlineConnect=0;fillColor=#dae8fc;strokeColor=#6c8ebf;" parent="1" vertex="1">
          <mxGeometry x="60" y="55" width="30" height="60" as="geometry" />
        </mxCell>
        <mxCell id="Mqg8hBfGUvNmrNl5-6yl-2" value="" style="html=1;points=[[0,0,0,0,5],[0,1,0,0,-5],[1,0,0,0,5],[1,1,0,0,-5]];perimeter=orthogonalPerimeter;outlineConnect=0;targetShapes=umlLifeline;portConstraint=eastwest;newEdgeStyle={&quot;curved&quot;:0,&quot;rounded&quot;:0};fillColor=#fff2cc;strokeColor=#d6b656;" vertex="1" parent="1">
          <mxGeometry x="70" y="140" width="10" height="670" as="geometry" />
        </mxCell>
        <mxCell id="Mqg8hBfGUvNmrNl5-6yl-14" value="&lt;span style=&quot;font-size: 11px;&quot;&gt;Introduce datos y selecciona imagen&amp;nbsp;&amp;nbsp;&lt;/span&gt;" style="html=1;verticalAlign=bottom;endArrow=block;curved=0;rounded=0;align=center;fontStyle=2;labelPosition=left;verticalLabelPosition=top;horizontal=1;entryX=-0.365;entryY=0.316;entryDx=0;entryDy=0;entryPerimeter=0;" edge="1" parent="1">
          <mxGeometry width="80" relative="1" as="geometry">
            <mxPoint x="80" y="306.72" as="sourcePoint" />
            <mxPoint x="316.3499999999999" y="306.72" as="targetPoint" />
          </mxGeometry>
        </mxCell>
        <mxCell id="Mqg8hBfGUvNmrNl5-6yl-31" value="" style="html=1;points=[[0,0,0,0,5],[0,1,0,0,-5],[1,0,0,0,5],[1,1,0,0,-5]];perimeter=orthogonalPerimeter;outlineConnect=0;targetShapes=umlLifeline;portConstraint=eastwest;newEdgeStyle={&quot;curved&quot;:0,&quot;rounded&quot;:0};fillColor=#fff2cc;strokeColor=#d6b656;" vertex="1" parent="1">
          <mxGeometry x="320" y="160" width="10" height="650" as="geometry" />
        </mxCell>
        <mxCell id="Mqg8hBfGUvNmrNl5-6yl-32" value="&lt;span style=&quot;font-style: italic;&quot;&gt;Solicita agregar videojuego&lt;/span&gt;" style="html=1;verticalAlign=bottom;endArrow=block;curved=0;rounded=0;align=center;entryX=0;entryY=0;entryDx=0;entryDy=5;entryPerimeter=0;" edge="1" target="Mqg8hBfGUvNmrNl5-6yl-31" parent="1">
          <mxGeometry relative="1" as="geometry">
            <mxPoint x="80" y="164" as="sourcePoint" />
            <mxPoint x="300" y="164" as="targetPoint" />
          </mxGeometry>
        </mxCell>
        <mxCell id="Mqg8hBfGUvNmrNl5-6yl-33" value="&lt;i&gt;Muestra formulario (nuevaVentana.php)&lt;/i&gt;" style="html=1;verticalAlign=bottom;endArrow=open;dashed=1;endSize=8;curved=0;rounded=0;exitX=0;exitY=0.167;exitDx=0;exitDy=0;exitPerimeter=0;" edge="1" parent="1">
          <mxGeometry relative="1" as="geometry">
            <mxPoint x="80" y="233.8900000000001" as="targetPoint" />
            <mxPoint x="320" y="233.8900000000001" as="sourcePoint" />
          </mxGeometry>
        </mxCell>
        <mxCell id="Mqg8hBfGUvNmrNl5-6yl-37" value="&lt;i&gt;Envía datos a guardarDatos.php&amp;nbsp; &amp;nbsp;&amp;nbsp;&lt;/i&gt;" style="html=1;verticalAlign=bottom;endArrow=block;curved=0;rounded=0;align=center;" edge="1" parent="1">
          <mxGeometry width="80" relative="1" as="geometry">
            <mxPoint x="330" y="356" as="sourcePoint" />
            <mxPoint x="541" y="356" as="targetPoint" />
          </mxGeometry>
        </mxCell>
        <mxCell id="Mqg8hBfGUvNmrNl5-6yl-38" value="Interfaz" style="text;align=center;fontStyle=1;verticalAlign=middle;spacingLeft=3;spacingRight=3;rotatable=0;points=[[0,0.5],[1,0.5]];portConstraint=eastwest;html=1;rounded=0;glass=0;fillColor=#f5f5f5;fontColor=#333333;strokeColor=#666666;" vertex="1" parent="1">
          <mxGeometry x="300" y="120" width="50" height="26" as="geometry" />
        </mxCell>
        <mxCell id="Mqg8hBfGUvNmrNl5-6yl-39" value="" style="html=1;points=[[0,0,0,0,5],[0,1,0,0,-5],[1,0,0,0,5],[1,1,0,0,-5]];perimeter=orthogonalPerimeter;outlineConnect=0;targetShapes=umlLifeline;portConstraint=eastwest;newEdgeStyle={&quot;curved&quot;:0,&quot;rounded&quot;:0};fillColor=#fff2cc;strokeColor=#d6b656;" vertex="1" parent="1">
          <mxGeometry x="541" y="340" width="10" height="390" as="geometry" />
        </mxCell>
        <mxCell id="Mqg8hBfGUvNmrNl5-6yl-41" value="" style="endArrow=none;dashed=1;endFill=0;endSize=12;html=1;rounded=0;curved=0;startFill=0;" edge="1" parent="1">
          <mxGeometry width="160" relative="1" as="geometry">
            <mxPoint x="325" y="160" as="sourcePoint" />
            <mxPoint x="324.81" y="146" as="targetPoint" />
          </mxGeometry>
        </mxCell>
        <mxCell id="Mqg8hBfGUvNmrNl5-6yl-45" value="Controlador" style="text;align=center;fontStyle=1;verticalAlign=middle;spacingLeft=3;spacingRight=3;rotatable=0;points=[[0,0.5],[1,0.5]];portConstraint=eastwest;html=1;rounded=0;glass=0;fillColor=#f5f5f5;fontColor=#333333;strokeColor=#666666;" vertex="1" parent="1">
          <mxGeometry x="506" y="120" width="75" height="26" as="geometry" />
        </mxCell>
        <mxCell id="Mqg8hBfGUvNmrNl5-6yl-46" value="" style="endArrow=none;dashed=1;endFill=0;endSize=12;html=1;rounded=0;curved=0;startFill=0;" edge="1" parent="1" source="Mqg8hBfGUvNmrNl5-6yl-39">
          <mxGeometry width="160" relative="1" as="geometry">
            <mxPoint x="545.83" y="160" as="sourcePoint" />
            <mxPoint x="545.64" y="146" as="targetPoint" />
          </mxGeometry>
        </mxCell>
        <mxCell id="Mqg8hBfGUvNmrNl5-6yl-57" value="" style="html=1;points=[[0,0,0,0,5],[0,1,0,0,-5],[1,0,0,0,5],[1,1,0,0,-5]];perimeter=orthogonalPerimeter;outlineConnect=0;targetShapes=umlLifeline;portConstraint=eastwest;newEdgeStyle={&quot;curved&quot;:0,&quot;rounded&quot;:0};fillColor=#fff2cc;strokeColor=#d6b656;" vertex="1" parent="1">
          <mxGeometry x="766" y="410" width="10" height="90" as="geometry" />
        </mxCell>
        <mxCell id="Mqg8hBfGUvNmrNl5-6yl-58" value="&lt;i&gt;Inserta datos en la tabla videojuego&lt;/i&gt;" style="html=1;verticalAlign=bottom;endArrow=block;curved=0;rounded=0;entryX=0;entryY=0;entryDx=0;entryDy=5;entryPerimeter=0;" edge="1" parent="1">
          <mxGeometry relative="1" as="geometry">
            <mxPoint x="551" y="420" as="sourcePoint" />
            <mxPoint x="766" y="420" as="targetPoint" />
          </mxGeometry>
        </mxCell>
        <mxCell id="Mqg8hBfGUvNmrNl5-6yl-59" value="&lt;i&gt;&amp;nbsp;Confirma inserción y devuelve ID&amp;nbsp; &amp;nbsp;&lt;/i&gt;" style="html=1;verticalAlign=bottom;endArrow=open;dashed=1;endSize=8;curved=0;rounded=0;exitX=0;exitY=1;exitDx=0;exitDy=-5;exitPerimeter=0;" edge="1" source="Mqg8hBfGUvNmrNl5-6yl-57" parent="1" target="Mqg8hBfGUvNmrNl5-6yl-39">
          <mxGeometry relative="1" as="geometry">
            <mxPoint x="540" y="491" as="targetPoint" />
            <mxPoint x="740" y="490" as="sourcePoint" />
          </mxGeometry>
        </mxCell>
        <mxCell id="Mqg8hBfGUvNmrNl5-6yl-60" value="Base de datos" style="text;align=center;fontStyle=1;verticalAlign=middle;spacingLeft=3;spacingRight=3;rotatable=0;points=[[0,0.5],[1,0.5]];portConstraint=eastwest;html=1;rounded=0;glass=0;fillColor=#f5f5f5;fontColor=#333333;strokeColor=#666666;" vertex="1" parent="1">
          <mxGeometry x="721" y="120" width="100" height="26" as="geometry" />
        </mxCell>
        <mxCell id="Mqg8hBfGUvNmrNl5-6yl-61" value="" style="endArrow=none;dashed=1;endFill=0;endSize=12;html=1;rounded=0;curved=0;startFill=0;entryX=0.49;entryY=1.154;entryDx=0;entryDy=0;entryPerimeter=0;" edge="1" parent="1" source="Mqg8hBfGUvNmrNl5-6yl-57" target="Mqg8hBfGUvNmrNl5-6yl-60">
          <mxGeometry width="160" relative="1" as="geometry">
            <mxPoint x="755" y="340" as="sourcePoint" />
            <mxPoint x="770" y="180" as="targetPoint" />
          </mxGeometry>
        </mxCell>
        <mxCell id="Mqg8hBfGUvNmrNl5-6yl-65" value="Sistema de archivos" style="text;align=center;fontStyle=1;verticalAlign=middle;spacingLeft=3;spacingRight=3;rotatable=0;points=[[0,0.5],[1,0.5]];portConstraint=eastwest;html=1;rounded=0;glass=0;fillColor=#f5f5f5;fontColor=#333333;strokeColor=#666666;" vertex="1" parent="1">
          <mxGeometry x="930" y="122" width="130" height="26" as="geometry" />
        </mxCell>
        <mxCell id="Mqg8hBfGUvNmrNl5-6yl-66" value="" style="endArrow=none;dashed=1;endFill=0;endSize=12;html=1;rounded=0;curved=0;startFill=0;entryX=0.49;entryY=1.154;entryDx=0;entryDy=0;entryPerimeter=0;" edge="1" parent="1" source="Mqg8hBfGUvNmrNl5-6yl-70" target="Mqg8hBfGUvNmrNl5-6yl-65">
          <mxGeometry width="160" relative="1" as="geometry">
            <mxPoint x="994" y="550" as="sourcePoint" />
            <mxPoint x="993" y="182" as="targetPoint" />
          </mxGeometry>
        </mxCell>
        <mxCell id="Mqg8hBfGUvNmrNl5-6yl-70" value="" style="html=1;points=[[0,0,0,0,5],[0,1,0,0,-5],[1,0,0,0,5],[1,1,0,0,-5]];perimeter=orthogonalPerimeter;outlineConnect=0;targetShapes=umlLifeline;portConstraint=eastwest;newEdgeStyle={&quot;curved&quot;:0,&quot;rounded&quot;:0};fillColor=#fff2cc;strokeColor=#d6b656;" vertex="1" parent="1">
          <mxGeometry x="990" y="560" width="10" height="80" as="geometry" />
        </mxCell>
        <mxCell id="Mqg8hBfGUvNmrNl5-6yl-71" value="&lt;i&gt;&amp;nbsp;Guarda la imagen en &quot;imagenes/ID.jpg&quot;&amp;nbsp;&lt;/i&gt;" style="html=1;verticalAlign=bottom;endArrow=block;curved=0;rounded=0;entryX=0;entryY=0;entryDx=0;entryDy=5;" edge="1" target="Mqg8hBfGUvNmrNl5-6yl-70" parent="1" source="Mqg8hBfGUvNmrNl5-6yl-39">
          <mxGeometry relative="1" as="geometry">
            <mxPoint x="690" y="565" as="sourcePoint" />
          </mxGeometry>
        </mxCell>
        <mxCell id="Mqg8hBfGUvNmrNl5-6yl-72" value="&lt;i&gt;Confirma almacenamiento&lt;/i&gt;" style="html=1;verticalAlign=bottom;endArrow=open;dashed=1;endSize=8;curved=0;rounded=0;exitX=0;exitY=1;exitDx=0;exitDy=-5;" edge="1" source="Mqg8hBfGUvNmrNl5-6yl-70" parent="1" target="Mqg8hBfGUvNmrNl5-6yl-39">
          <mxGeometry relative="1" as="geometry">
            <mxPoint x="690" y="635" as="targetPoint" />
          </mxGeometry>
        </mxCell>
        <mxCell id="Mqg8hBfGUvNmrNl5-6yl-74" value="&lt;span style=&quot;font-size: 11px;&quot;&gt;&lt;i&gt;Envía mensaje de confirmación/error&amp;nbsp; &amp;nbsp;&lt;/i&gt;&lt;/span&gt;" style="html=1;verticalAlign=bottom;endArrow=open;dashed=1;endSize=8;curved=0;rounded=0;align=center;exitX=0;exitY=1;exitDx=0;exitDy=-5;exitPerimeter=0;" edge="1" parent="1" source="Mqg8hBfGUvNmrNl5-6yl-39" target="Mqg8hBfGUvNmrNl5-6yl-31">
          <mxGeometry relative="1" as="geometry">
            <mxPoint x="370" y="700" as="targetPoint" />
            <mxPoint x="500" y="720" as="sourcePoint" />
          </mxGeometry>
        </mxCell>
        <mxCell id="Mqg8hBfGUvNmrNl5-6yl-75" value="&lt;span style=&quot;font-size: 11px;&quot;&gt;&lt;i&gt;Muestra mensaje y redirige a index.php&amp;nbsp;&amp;nbsp;&lt;/i&gt;&lt;/span&gt;" style="html=1;verticalAlign=bottom;endArrow=open;dashed=1;endSize=8;curved=0;rounded=0;align=center;" edge="1" parent="1">
          <mxGeometry relative="1" as="geometry">
            <mxPoint x="80" y="799" as="targetPoint" />
            <mxPoint x="320" y="799" as="sourcePoint" />
          </mxGeometry>
        </mxCell>
        <mxCell id="Mqg8hBfGUvNmrNl5-6yl-77" value="" style="shape=umlDestroy;whiteSpace=wrap;html=1;strokeWidth=3;targetShapes=umlLifeline;fillColor=#f8cecc;strokeColor=#b85450;" vertex="1" parent="1">
          <mxGeometry x="60" y="810" width="30" height="30" as="geometry" />
        </mxCell>
        <mxCell id="Mqg8hBfGUvNmrNl5-6yl-78" value="" style="shape=umlDestroy;whiteSpace=wrap;html=1;strokeWidth=3;targetShapes=umlLifeline;fillColor=#f8cecc;strokeColor=#b85450;" vertex="1" parent="1">
          <mxGeometry x="756" y="500" width="30" height="30" as="geometry" />
        </mxCell>
        <mxCell id="Mqg8hBfGUvNmrNl5-6yl-79" value="" style="shape=umlDestroy;whiteSpace=wrap;html=1;strokeWidth=3;targetShapes=umlLifeline;fillColor=#f8cecc;strokeColor=#b85450;" vertex="1" parent="1">
          <mxGeometry x="310" y="810" width="30" height="30" as="geometry" />
        </mxCell>
        <mxCell id="Mqg8hBfGUvNmrNl5-6yl-80" value="" style="shape=umlDestroy;whiteSpace=wrap;html=1;strokeWidth=3;targetShapes=umlLifeline;fillColor=#f8cecc;strokeColor=#b85450;" vertex="1" parent="1">
          <mxGeometry x="531" y="730" width="30" height="30" as="geometry" />
        </mxCell>
        <mxCell id="Mqg8hBfGUvNmrNl5-6yl-81" value="" style="shape=umlDestroy;whiteSpace=wrap;html=1;strokeWidth=3;targetShapes=umlLifeline;fillColor=#f8cecc;strokeColor=#b85450;" vertex="1" parent="1">
          <mxGeometry x="980" y="640" width="30" height="30" as="geometry" />
        </mxCell>
      </root>
    </mxGraphModel>
  </diagram>
</mxfile>
